<?xml version="1.0" encoding="utf-8"?>
<!-- Generator: Adobe Illustrator 26.0.2, SVG Export Plug-In . SVG Version: 6.00 Build 0)  -->
<svg version="1.1" id="Calque_1" xmlns="http://www.w3.org/2000/svg" xmlns:xlink="http://www.w3.org/1999/xlink" x="0px" y="0px"
	 viewBox="0 0 1080 1080" style="enable-background:new 0 0 1080 1080;" xml:space="preserve">
<style type="text/css">
	.st0{fill:#FFFFFF;}
</style>
<path d="M41.36,1020.22c0,16.09-0.15,28.38-0.15,0.93c-0.08-33.29-0.14-13.46-0.19-3.84C41.39,1013.38,41.53,1038.81,41.36,1020.22z
	"/>
<g>
	<path class="st0" d="M33.96,15.65C41.69,7.61,32.09,9.11,33.96,15.65L33.96,15.65z"/>
	<path class="st0" d="M16.4,113.62c1.37,1.46,3.91,3.19,4.03-0.1C19.66,113.28,18.37,113.29,16.4,113.62z"/>
	<path class="st0" d="M1049.51,1056.08c-1.1,1.46-1.93,2.87-2.62,4.15C1047.58,1059.75,1048.51,1058.47,1049.51,1056.08z"/>
	<path class="st0" d="M10.77,1047.59c-0.08-1.14-0.21-2.26-0.36-3.34C9.78,1045.03,9.62,1046.59,10.77,1047.59z"/>
	<path class="st0" d="M659.76,1063.22C659.92,1066.11,660.49,1065.93,659.76,1063.22L659.76,1063.22z"/>
	<path class="st0" d="M1070.42,148.41c0.24,0.13,0.5,0.19,0.77,0.16C1070.93,148.4,1070.67,148.35,1070.42,148.41z"/>
	<path class="st0" d="M1070.24,32.42C1081.55,28.18,1071.41,25.47,1070.24,32.42L1070.24,32.42z"/>
	<path class="st0" d="M1068.11,357.2c-7.59-16.47-8.7-32.93,4.66-49.35c2.87-16.42,1.94-32.81-2.57-49.13
		c-1.55-18.21-9.84-32.02-5.42-54.88c0.23-30.44,1.98-54.61,5.64-55.43c-4.46-2.34-3.59-31.21-2.18-55.33
		c1.48-16.01,3.87-55.27,2.54-55.49c-0.66-2.13-0.77-3.83-0.54-5.17c-0.04,0.02-0.08,0.03-0.12,0.05
		c3.92-11.07-2.61-15.42-5.81-15.68c-0.53-10.14-15.35,5.48-17.48-3.37c-6.42-10.57-72.42,8.63-52.46,5.43
		c2.01,19.81-15.68-13.28-8.14,0.86c-26.46,1.51-39.08,2.44-41.31,3.01c-8.59-6.9-15.86,17.74-22.22-1.8
		c-3.43,4.94-7.1,7.36-10.98-3.05c-3.58-0.24-7.29-24.6-11.3-3.26c-15.44-10.4-29.38,37.23-40.59,4.32
		c-4.57-22.78-8.89,30.17-12.88,3.58c-13.1-17.39-26.66,13.09-41.01,3.71c-2.39,7.53-4.78-31.6-7.17,0.33
		c-17.44-8.43-34.89-9.09-52.35,2.54c-9.23-6.11-18.6,13.23-27.65,1.45c-12.63,14.02-25.48-6.42-38.35,1.93
		c-12.88-14.04-25.79-4.16-38.55,1.17c-18.01-1.26-34.88-16.28-50.82-1.56c-15.95-14.47-30.98-10.95-45.31-6.11
		c-15.74-13.26-30.92-4.63-45.13-12.11c0,10.54-2.07,16.07-2.07-0.73c-7.51-18.69-16.02-9.46-25.81-6.04
		c-11-18.6-20.36,23.46-28.29,6.24c-14.82,28.08-30.37,20.61-45.71,12.97c-15.33,20.97-30.45-6.76-44.42,5.5
		c0,32.66-5.15,0.36-5.15,0.41c-14.74,13.65-29.98,3.84-44.64,2.51c-11.87-0.99-23.6-21.96-36.02-3.75
		c-3.29,16.23-6.59-5.04-9.92-1.53c-14.04,5.87-30.03-15.55-52.71,6.92c-8.67-4.07-19.71-4.03-21.95-2.49
		c-1.76-1.86-4.64-3.23-9.97-2.21c-24.74-18.86-20.11-17.92-49.7-11.35c8.86-8.12-41.3,9.69-50.43-2.48
		c18.48,0.55,21.98-0.53-0.44-0.67c-0.02-0.03-0.04-0.05-0.06-0.08c4.35-5.45,1.95-1.09-5.67,0.07c-1.11,0-2.26,0-3.46,0.01
		c0.53-3.26-5.29-15.01-18.86-1.98c-0.21-13.45-12,10.01-10.66,2.18c-0.32-0.61-0.55-1.18-0.71-1.71c-1.5,1.56-3.64,3.47-6.66,5.79
		C5.46,17.93-3.37,42.33,9.54,56.02c-20.58,29.36,10.16,19.31,3.77,35.16c5.57,13.19,7.21,19.56,7.12,22.34
		c6.52,2.06-25.22,22.51-7.35,22.1c11.67-12.46,26.3,7.01-3.76,24.61c9.45-9.71-6.97-0.04-0.25,6.59
		c-3.27,6.35-13.49,21.97,4.51,39.65c-4.58,2.56-8.43,7.02,3.97,5.45c37.46-0.88-28.14,14.66,5.42,38.13
		c17.08,24.29-2.41,26.62-0.7,40.52c-6.01,5.68,4.29,11.56-0.65,17.36c-1.44,11.2-27.54,22.39-1,33.58
		c36.54,23.35-23.38,47.49-1.99,71.25c-0.09,15.53,4.34,32.49,0.53,50.19c8.42,17.7-6.42,36.15,7.01,54.68
		c11.61,15.27-11.78,31.06,6.65,46.63c13.8,0,17.73,0.37,0,0.37c2.5,8.86-17.11,17.68-1.16,27.03c1.84,7.56,11.67,15.38-1.15,23.24
		c-27.67,17.08-15.32,34.25,0.27,50.86c-0.86,16.9,26.7,34.38,0.22,51.37c12.95,18.5-36.56,34.49-4.54,48.88
		c-8.03,8.98,9.63,17.81-5.62,27.15c-8.91,7.06-10.63,14.37-4.62,21.7c-2.47,18.3,10.79,36.63-6.04,54.43
		c0.07,21.7,32.82,60.55-0.49,51.25c-7.21,29.58-16.16,45.68,0.44,52.1c-11.65,12.53,2.25,40.4,0.45,52.1
		c-12.01-5.55-2.48,3.6-0.17,19.51c1.42-1.76,5.22,0.45,1.78,22.13c8.66,7.15,13.29,7.58,25.18,10.04c0.01-0.01,0.01-0.02,0.01-0.04
		c0.01,0.01,0.01,0.02,0.01,0.03c21.05-19.82,30.73-28.89,66.97-9.54c16.39,7.67,45.69-18.53,70.38,3.63
		c15.78,9.38,30.96,2.25,46.47,3.21c21.24,7.31,42.38-13.82,63.31-1.25c20.92,19.86,41.63-19.09,61.99-5.98
		c23.82-25.02,44.47-6.93,72.57-6.62c26.12-8.87,47.11-9.74,48.91-0.11c34.48,3.95,38.97,10.81,46.41,2.82
		c26.84,6.79,30.66-4.99,48.98,2.21c3.47-40.09,35.68-7,50.25-3.5c20.15-24.88,27.23,5.91,40.27-10.35
		c3.64,5.75,5.23,9.95,5.86,12.29c-0.14-2.48,0.02-7.22,1.55-14.57c3.54-1.42,25.43-1.94,41.13-3.7
		c17.97-14.41,19.19-5.84,43.9,3.63c23.48-6.67,52.25,21.5,57.09,4.6c19.06,22.33,33.51-0.39,48.74,3.2
		c15.23-7.27,31.25-15.83,53.46,2.56c14.69,16.75,32.95,24.44,51.18,1.9c18.22,30.07,36.41-33.06,50.95,1.24
		c8.93-3.72,13.81-6.59,26.05,0.38c9.6,6.77,9.9,3.63,13.08-2.23c-2.26,1.59-1.93-5.45,7-10.71c6.51,17.78,4.81-21.85,4.48-13.16
		c-1.91,6.18-7.84-22.98,0.41-61.7c-10.81-39.07,0.8-53.97,0.43-63.24c5.19-15.03,7.82-23.52,7.9-35.67
		c0.08-12.14-2.39-24.48-7.42-36.82c8.11-24.68,1.69-49.36,0.76-72.5c-0.93-23.13-1.96-44.73,0.15-63.24
		c6.91-37.01,8.29-61.69,0.41-61.69c-10.63-2.36,7.79-4.72,0.05-7.08c-6.65-13.04,6.23-26.52-0.32-39.96
		c-3.35-8.71-2.51-16.6-1.83-24.13c-1.25-3.51,7.78-6.85-1.61-10.07c1.14-4.63-10.86-9.01-1.6-12.64c-1.09-2.05,2.07-5.14,1.96-8.42
		c9.8-2.88,9.85-6.14,2.56-9.72c-1.56-8.91,12.17-17.76,2.7-26c3-14.27-2.19-28.73,1.78-42.73c-7.62,0-13.22-4.89,0.19-4.89
		c-4.53-16.38-1.59-32.81,9.29-49.27C1077.63,390.14,1081.44,373.67,1068.11,357.2z M186.89,38.72c-0.5-0.43-0.72-0.85-0.63-1.16
		C186.48,38.01,186.69,38.41,186.89,38.72c0.29,0.26,0.68,0.51,1.14,0.75C187.58,39.55,187.23,39.25,186.89,38.72z"/>
</g>
</svg>
